<?xml version="1.0" encoding="UTF-8" standalone="no"?>
<!DOCTYPE svg PUBLIC "-//W3C//DTD SVG 1.1//EN"
 "http://www.w3.org/Graphics/SVG/1.1/DTD/svg11.dtd">
<!-- Generated by graphviz version 5.0.0 (20220707.1540)
 -->
<!-- Title: StorageDiagram Pages: 1 -->
<svg width="1225pt" height="141pt"
 viewBox="0.00 0.00 1224.58 141.20" xmlns="http://www.w3.org/2000/svg" xmlns:xlink="http://www.w3.org/1999/xlink">
<g id="graph0" class="graph" transform="scale(1 1) rotate(0) translate(4 137.2)">
<title>StorageDiagram</title>
<polygon fill="white" stroke="transparent" points="-4,4 -4,-137.2 1220.58,-137.2 1220.58,4 -4,4"/>
<!-- 2 -->
<g id="node1" class="node">
<title>2</title>
<polygon fill="#f2f2f2" stroke="black" points="0,-33.5 0,-132.7 610.09,-132.7 610.09,-33.5 0,-33.5"/>
<text text-anchor="middle" x="305.04" y="-116.1" font-family="Courier New" font-size="14.00">AlienCodex &lt;&lt;Contract&gt;&gt;</text>
<polyline fill="none" stroke="black" points="0,-107.9 610.09,-107.9 "/>
<text text-anchor="middle" x="24.8" y="-91.3" font-family="Courier New" font-size="14.00">slot</text>
<polyline fill="none" stroke="black" points="0,-83.1 49.61,-83.1 "/>
<text text-anchor="middle" x="24.8" y="-66.5" font-family="Courier New" font-size="14.00">0</text>
<polyline fill="none" stroke="black" points="0,-58.3 49.61,-58.3 "/>
<text text-anchor="middle" x="24.8" y="-41.7" font-family="Courier New" font-size="14.00">1</text>
<polyline fill="none" stroke="black" points="49.61,-33.5 49.61,-107.9 "/>
<text text-anchor="middle" x="329.85" y="-91.3" font-family="Courier New" font-size="14.00">type: &lt;inherited contract&gt;.variable (bytes)</text>
<polyline fill="none" stroke="black" points="49.61,-83.1 610.09,-83.1 "/>
<text text-anchor="middle" x="124.82" y="-66.5" font-family="Courier New" font-size="14.00">unallocated (11)</text>
<polyline fill="none" stroke="black" points="200.03,-58.3 200.03,-83.1 "/>
<text text-anchor="middle" x="279.44" y="-66.5" font-family="Courier New" font-size="14.00">bool: contact (1)</text>
<polyline fill="none" stroke="black" points="358.85,-58.3 358.85,-83.1 "/>
<text text-anchor="middle" x="484.47" y="-66.5" font-family="Courier New" font-size="14.00">address: Ownable._owner (20)</text>
<polyline fill="none" stroke="black" points="49.61,-58.3 610.09,-58.3 "/>
<text text-anchor="middle" x="329.82" y="-41.7" font-family="Courier New" font-size="14.00">bytes32[]: codex (32)</text>
</g>
<!-- 1 -->
<g id="node2" class="node">
<title>1</title>
<polygon fill="#f2f2f2" stroke="black" points="646.09,-0.5 646.09,-91.7 1216.58,-91.7 1216.58,-0.5 646.09,-0.5"/>
<text text-anchor="middle" x="931.33" y="-75.1" font-family="Courier New" font-size="14.00">bytes32[]: codex &lt;&lt;Array&gt;&gt;</text>
<text text-anchor="middle" x="931.33" y="-58.3" font-family="Courier New" font-size="14.00">0xb10e2d527612073b26eecdfd717e6a320cf44b4afac2b0732d9fcbe2b7fa0cf6</text>
<polyline fill="none" stroke="black" points="646.09,-50.1 1216.58,-50.1 "/>
<text text-anchor="middle" x="754.79" y="-33.5" font-family="Courier New" font-size="14.00">offset</text>
<polyline fill="none" stroke="black" points="646.09,-25.3 863.5,-25.3 "/>
<text text-anchor="middle" x="754.79" y="-8.7" font-family="Courier New" font-size="14.00">0</text>
<polyline fill="none" stroke="black" points="863.5,-0.5 863.5,-50.1 "/>
<text text-anchor="middle" x="1039.91" y="-33.5" font-family="Courier New" font-size="14.00">type: variable (bytes)</text>
<polyline fill="none" stroke="black" points="863.5,-25.3 1216.33,-25.3 "/>
<text text-anchor="middle" x="1039.91" y="-8.7" font-family="Courier New" font-size="14.00">bytes32 (32)</text>
</g>
<!-- 2&#45;&gt;1 -->
<g id="edge1" class="edge">
<title>2:4&#45;&gt;1</title>
<path fill="none" stroke="black" d="M610.09,-46.1C618.48,-46.1 627,-46.1 635.59,-46.1"/>
<polygon fill="black" stroke="black" points="635.72,-49.6 645.72,-46.1 635.72,-42.6 635.72,-49.6"/>
</g>
</g>
</svg>
